#N canvas 662 42 720 383 10;
#N canvas 542 139 738 271 gemwin 0;
#X obj 123 37 inlet;
#X obj 123 63 sel 0 1;
#X msg 123 159 0 \, destroy;
#X obj 299 49 key;
#X obj 299 72 sel 27;
#X obj 368 51 gemkeyboard;
#X obj 368 74 sel 53;
#X obj 299 95 tgl 15 0 empty empty empty 17 7 0 10 -262144 -1 -1 0
1;
#X obj 299 114 t f b;
#X obj 299 137 pipe 50;
#X obj 298 160 sel 0 1;
#X msg 317 205 reset \, menubar 0 \, fullscreen 1 \, create \, 1;
#X msg 133 179 reset \, dimen 640 480 \, create \, 1;
#X obj 123 219 gemwin 25;
#X obj 211 38 inlet;
#X msg 211 66 frame \$1;
#X connect 0 0 1 0;
#X connect 1 0 2 0;
#X connect 1 1 12 0;
#X connect 2 0 13 0;
#X connect 3 0 4 0;
#X connect 4 0 7 0;
#X connect 5 0 6 0;
#X connect 6 0 7 0;
#X connect 7 0 8 0;
#X connect 8 0 9 0;
#X connect 8 1 2 0;
#X connect 9 0 10 0;
#X connect 10 0 12 0;
#X connect 10 1 11 0;
#X connect 11 0 13 0;
#X connect 12 0 13 0;
#X connect 14 0 15 0;
#X connect 15 0 13 0;
#X restore 216 196 pd gemwin;
#X obj 216 170 tgl 15 0 empty empty empty 17 7 0 10 -262144 -1 -1 1
1;
#X text 215 149 rendu;
#X floatatom 267 170 5 0 0 0 - - -;
#X text 267 150 FPS;
#N canvas 63 438 1355 704 buffer 1;
#X obj 263 234 rectangle 4 3;
#X obj 263 14 t a b;
#X obj 39 30 gemhead;
#X obj 44 302 t a b;
#X obj 114 318 + 1;
#X obj 263 -32 gemhead 51;
#X obj 114 287 f;
#X obj 310 49 random 10;
#X obj 310 106 +;
#X obj 325 82 + 50;
#X obj 263 210 pix_texture;
#X obj 25 466 pix_buffer_write \$0-stockage;
#X obj 263 166 pix_buffer_read \$0-stockage;
#X obj 361 -2 inlet;
#X obj 310 131 % 128;
#X obj 114 353 % 128;
#X obj 39 64 pix_video;
#X msg 116 38 device 1;
#X floatatom 247 306 5 0 64 1 segments - -;
#X floatatom 262 326 5 0 0 1 sourceAngle - -;
#X obj 237 361 pix_kaleidoscope;
#X obj 5 112 spigot;
#X obj 47 243 spigot;
#X obj 175 127 tgl 15 0 empty empty empty 17 7 0 10 -262144 -1 -1 1
1;
#X obj 185 158 == 1;
#X obj 108 95 == 0;
#X floatatom 426 277 5 0 0 0 - - -;
#X floatatom 490 274 5 0 0 0 - - -;
#X floatatom 574 319 5 0 0 0 - - -;
#X floatatom 637 317 5 0 0 0 - - -;
#X floatatom 263 462 5 0 0 0 - - -;
#X floatatom 326 460 5 0 0 0 - - -;
#X obj 261 421 ctlin 1;
#X obj 7 175 pix_invert;
#X obj 35 152 tgl 15 0 empty empty empty 17 7 0 10 -262144 -1 -1 1
1;
#X floatatom 87 -45 5 0 0 0 - - -;
#X obj 37 -42 sel 127;
#X obj 41 -71 ctlin 32;
#X floatatom 194 -35 5 0 0 0 - - -;
#X obj 144 -32 sel 127;
#X obj 148 -61 ctlin 33;
#X obj 501 160 dac~;
#X obj 506 74 tabplay~ \$0-stockage;
#X obj 495 19 bng 15 250 50 0 empty empty empty 17 7 0 10 -262144 -1
-1;
#X obj 575 176 pix_pix2sig~;
#X obj 899 409 dac~;
#N canvas 352 215 338 213 ARGO 0;
#X obj 101 101 cnv 10 208 17 empty ColorForm empty 20 12 0 14 -228856
-1 1.04858e+06;
#X obj 101 101 cnv 4 10 4 empty empty empty 20 12 0 14 -128992 -66577
0;
#X obj 247 106 cnv 10 20 10 empty ColorForm GEM-Info 1 5 1 14 -228856
-1 1.04858e+06;
#X text 83 80 gemlist;
#X obj 101 14 inlet;
#X obj 179 14 loadbang;
#X obj 179 44 delay 1000;
#X obj 11 22 cnv 15 60 30 empty empty empty 20 12 0 14 -24198 -66577
0;
#N canvas 599 156 412 359 Help 0;
#X obj 7 227 cnv 15 400 70 empty empty empty 20 12 0 14 -224896 -66577
0;
#X text 11 227 - Erreur dans la fenêtre Pd:;
#X obj 6 67 cnv 15 400 140 empty empty empty 20 12 0 14 -233017 -66577
0;
#X text 9 66 Citation;
#X text 23 85 [pix_info] will give you some meta-information about
the image data consisting of the image-dimensions \, the pixel-size
\, the colour-space and the pointer to the image-data itself.;
#X text 23 138 The colour-space is given as an openGL-int-constant.
(6408=GL_RGBA (rgba) \, 6409=GL_LUMINANCE (grey) \, 34233 might be
YUV (not standardized);
#X text 22 175 You might not be able to do anything with the data-pointer.
;
#X text 18 14 RGB = Red Green Blue = 6407 decimal = 1907 hexa;
#X text 18 44 YUV = Luma \, ChromaB \, ChromaR = 34233 decimal = 85B9
hexa;
#X text 12 29 RGBA = Red Green Blue Alpha = 6408 decimal = 1908 hexa
;
#X text 12 0 Grey = Niveaux de gris = 6409 decimal = 1909 hexa;
#X text 12 -19 GEM-Info;
#X restore 18 29 pd Help;
#X text 13 136 Préférer des images dont la taille en pixels est un
multiple de 8x8 pixels (cf library PDP... et GEM?);
#N canvas 449 136 449 399 Geminfo 0;
#X obj 34 23 inlet;
#X obj 123 27 inlet;
#X obj 15 357 outlet;
#X text 27 4 gemlist;
#X text 127 9 bang;
#X text 20 373 label;
#X obj 33 57 pix_info;
#X obj 12 139 change;
#X obj 59 139 change;
#X obj 158 136 change;
#X obj 185 194 sel 32993 34233 6409 6408 32992 6407;
#X msg 14 333 label \$1;
#X obj 14 311 tosymbol;
#X msg 185 233 RGBA;
#X msg 221 233 YUV;
#X msg 256 233 Grey;
#X msg 327 233 RGB;
#X msg 398 233 ?;
#X text 180 285 <- ATTENTION jamais d'espace dans un label;
#X obj 11 234 clip 0 100000;
#X obj 99 234 clip 0 100000;
#X msg 175 87 0;
#X obj 124 57 t b b b b;
#X obj 13 285 sprintf %dx%d--%s--%dbytes;
#X obj 158 168 t b f;
#X obj 59 171 t b f;
#X obj 105 137 change;
#X obj 105 169 t b f;
#X connect 0 0 6 0;
#X connect 1 0 22 0;
#X connect 6 1 7 0;
#X connect 6 2 8 0;
#X connect 6 3 26 0;
#X connect 6 4 9 0;
#X connect 7 0 19 0;
#X connect 8 0 25 0;
#X connect 9 0 24 0;
#X connect 10 0 13 0;
#X connect 10 1 14 0;
#X connect 10 2 15 0;
#X connect 10 3 13 0;
#X connect 10 4 16 0;
#X connect 10 5 16 0;
#X connect 10 6 17 0;
#X connect 11 0 2 0;
#X connect 12 0 11 0;
#X connect 13 0 23 2;
#X connect 14 0 23 2;
#X connect 15 0 23 2;
#X connect 16 0 23 2;
#X connect 17 0 23 2;
#X connect 19 0 23 0;
#X connect 20 0 23 1;
#X connect 21 0 9 0;
#X connect 21 0 8 0;
#X connect 21 0 7 0;
#X connect 22 0 7 0;
#X connect 22 1 8 0;
#X connect 22 2 9 0;
#X connect 22 3 21 0;
#X connect 23 0 12 0;
#X connect 24 0 19 0;
#X connect 24 1 10 0;
#X connect 25 0 19 0;
#X connect 25 1 20 0;
#X connect 26 0 27 0;
#X connect 27 0 19 0;
#X connect 27 1 23 3;
#X restore 101 43 pd Geminfo;
#X obj 101 106 bng 12 250 50 0 \$0-A \$0-B 320x240--RGBA--4bytes 15
7 1 11 -262144 -1 -1;
#X text 5 101 Reload Image ->;
#X obj 283 170 cnv 15 41 30 empty empty empty 20 12 0 14 -24198 -66577
0;
#N canvas 350 196 308 136 ?? 0;
#X obj -9 87 cnv 15 300 38 empty empty empty 20 12 0 14 -224896 -66577
0;
#X obj -9 10 cnv 18 300 70 empty empty ARGOPdMiniModules 1 10 1 14
-4033 -1 1.04858e+06;
#X obj 9 29 cnv 10 10 10 empty empty Gerard 0 5 1 9 -4033 -1 1.04858e+06
;
#X obj 40 29 cnv 10 10 10 empty empty Paresys 0 5 1 9 -4033 -1 1.04858e+06
;
#X text -8 89 Construit sous / Build under Pd 0.42.5-extended;
#X obj 39 105 pddplink http://puredata.info/downloads;
#X obj 3 42 pddplink http://pagesperso-orange.fr/Paresys/ARGOPd/;
#X obj 3 57 pddplink http://gerard.paresys.free.fr/ARGOPd/;
#X restore 287 177 pd ??;
#X text 251 81 17 11 2010;
#X connect 4 0 10 0;
#X connect 5 0 6 0;
#X connect 6 0 11 0;
#X connect 10 0 11 0;
#X connect 11 0 10 1;
#X coords 0 -1 1 1 210 19 1 100 100;
#X restore 923 189 pd ARGO;
#N canvas 407 331 985 460 ARGO 0;
#X text 89 6 gemlist;
#X obj 95 22 inlet;
#X obj 100 106 tgl 12 1 \$0-A ColorGEM On/Off 15 6 1 9 -262144 -1 -1
1 1;
#X obj 100 118 hradio 12 1 1 11 \$0-A ColorForm 32768 134 7 1 10 -262144
-1 -1 7;
#X obj 184 130 hradio 12 1 1 4 \$0-A ColorForm 8 52 7 1 10 -262144
-1 -1 3;
#X obj 184 21 r \$0-SendOnOff;
#X obj 184 50 sel 1;
#X obj 146 134 cnv 3 3 3 empty ColorForm Overlap 0 2 1 10 -228856 -1
1.04858e+06;
#X obj 95 188 pix_pix2sig~;
#X obj 97 344 outlet~;
#X obj 137 167 cnv 4 10 4 empty empty empty 20 12 0 14 -1 -66577 0
;
#X obj 178 167 cnv 4 10 4 empty empty empty 20 12 0 14 -1 -66577 0
;
#X obj 219 167 cnv 4 10 4 empty empty empty 20 12 0 14 -1 -66577 0
;
#X text 116 362 R;
#X text 192 363 G;
#X text 266 363 B;
#X text 333 363 Alpha;
#X obj 184 142 tgl 12 1 \$0-A \$0-B High-pass-filter 14 6 1 9 -262144
-1 -1 1 1;
#X obj 110 295 hip~ 50;
#X obj 110 318 *~;
#X obj 83 318 *~;
#X obj 203 188 == 0;
#X obj 173 344 outlet~;
#X obj 186 295 hip~ 50;
#X obj 186 318 *~;
#X obj 159 318 *~;
#X obj 249 344 outlet~;
#X obj 262 295 hip~ 50;
#X obj 262 318 *~;
#X obj 235 318 *~;
#X obj 325 344 outlet~;
#X obj 338 295 hip~ 50;
#X obj 338 318 *~;
#X obj 311 318 *~;
#X obj 133 159 cnv 3 3 3 empty ColorForm Red 0 2 1 10 -228856 -1 1.04858e+06
;
#X obj 169 159 cnv 3 3 3 empty ColorForm Green 0 2 1 10 -228856 -1
1.04858e+06;
#X obj 214 159 cnv 3 3 3 empty ColorForm Blue 0 2 1 10 -228856 -1 1.04858e+06
;
#X obj 244 159 cnv 3 3 3 empty ColorForm Alpha 0 2 1 10 -228856 -1
1.04858e+06;
#X floatatom 478 98 5 0 0 0 - - -;
#X floatatom 532 93 5 0 0 0 - - -;
#X floatatom 482 190 5 0 0 0 - - -;
#X floatatom 536 185 5 0 0 0 - - -;
#X obj 493 143 ctlin 34;
#X obj 259 167 cnv 4 10 4 empty empty empty 20 12 0 14 -1 -66577 0
;
#X obj -35 134 expr (pow(2 \, $f1));
#N canvas 406 211 292 221 label 0;
#X msg 119 118 label \$1;
#X obj 119 96 tosymbol;
#X obj 119 74 sprintf %d;
#X obj 119 46 inlet;
#X obj 118 146 outlet;
#X connect 0 0 4 0;
#X connect 1 0 0 0;
#X connect 2 0 1 0;
#X connect 3 0 2 0;
#X restore 25 112 pd label;
#N canvas 406 211 292 221 label 0;
#X msg 119 118 label \$1;
#X obj 119 96 tosymbol;
#X obj 119 74 sprintf %d;
#X obj 119 46 inlet;
#X obj 118 146 outlet;
#X connect 0 0 4 0;
#X connect 1 0 0 0;
#X connect 2 0 1 0;
#X connect 3 0 2 0;
#X restore 2 158 pd label;
#X obj -60 89 expr (pow(2 \, $f1 + 8));
#X obj 33 344 outlet;
#X obj -82 344 switch~ 1024 4 1;
#X msg 30 271 0;
#X msg -89 270 1;
#X text -5 186 1 2 4 8;
#X obj -44 245 pack 1 2;
#X msg -54 270 set \$1 \$2 1;
#X obj -16 202 t b b f b;
#X obj -115 202 t b b b f f f b;
#X text 33 360 gemlist;
#X text -95 186 256..262144;
#X obj 489 51 ctlin 16;
#X obj 358 59 vsl 15 128 0 127 0 0 empty empty empty 0 -9 0 10 -262144
-1 -1 8000 1;
#X connect 1 0 8 0;
#X connect 2 0 49 0;
#X connect 3 0 47 0;
#X connect 4 0 44 0;
#X connect 5 0 6 0;
#X connect 8 0 48 0;
#X connect 8 1 20 0;
#X connect 8 1 18 0;
#X connect 8 2 25 0;
#X connect 8 2 23 0;
#X connect 8 3 29 0;
#X connect 8 3 27 0;
#X connect 8 4 33 0;
#X connect 8 4 31 0;
#X connect 17 0 19 1;
#X connect 17 0 21 0;
#X connect 17 0 24 1;
#X connect 17 0 28 1;
#X connect 17 0 32 1;
#X connect 18 0 19 0;
#X connect 19 0 9 0;
#X connect 20 0 9 0;
#X connect 21 0 20 1;
#X connect 21 0 25 1;
#X connect 21 0 29 1;
#X connect 21 0 33 1;
#X connect 23 0 24 0;
#X connect 24 0 22 0;
#X connect 25 0 22 0;
#X connect 27 0 28 0;
#X connect 28 0 26 0;
#X connect 29 0 26 0;
#X connect 31 0 32 0;
#X connect 32 0 30 0;
#X connect 33 0 30 0;
#X connect 42 0 40 0;
#X connect 42 1 41 0;
#X connect 44 0 46 0;
#X connect 44 0 55 0;
#X connect 45 0 3 0;
#X connect 46 0 4 0;
#X connect 47 0 45 0;
#X connect 47 0 56 0;
#X connect 50 0 49 0;
#X connect 51 0 49 0;
#X connect 53 0 54 0;
#X connect 54 0 49 0;
#X connect 55 0 51 0;
#X connect 55 1 53 0;
#X connect 55 2 53 1;
#X connect 55 3 50 0;
#X connect 56 0 51 0;
#X connect 56 5 53 0;
#X connect 56 6 50 0;
#X connect 59 0 38 0;
#X connect 59 0 60 0;
#X connect 59 1 39 0;
#X connect 60 0 26 0;
#X coords 0 -1 1 1 170 72 2 100 100;
#X restore 899 217 pd ARGO;
#N canvas 497 69 347 307 ARGO 0;
#X obj 101 101 cnv 20 116 34 empty ColorAmpli empty 20 12 0 14 -261299
-1 1.04858e+06;
#X obj 85 282 outlet~;
#X obj 157 104 cnv 10 20 10 empty ColorAmpli Ampli 1 5 1 14 -261299
-1 1.04858e+06;
#X obj 85 43 inlet~;
#X obj 85 259 *~;
#X obj 115 118 hsl 101 12 -80 20 0 1 \$0-A ColorAmpli -30dB 0 7 1 9
-261299 -1 -1 5000 0;
#X obj 101 101 cnv 4 10 4 empty empty empty 20 12 0 14 -1 -66577 0
;
#X obj 101 131 cnv 4 10 4 empty empty empty 20 12 0 14 -1 -66577 0
;
#X obj 207 101 cnv 4 10 4 empty empty empty 20 12 0 14 -1 -66577 0
;
#X obj 207 131 cnv 4 10 4 empty empty empty 20 12 0 14 -1 -66577 0
;
#X obj 222 281 outlet~;
#X obj 222 42 inlet~;
#X obj 222 258 *~;
#X msg -10 150 label \$1;
#X obj -11 127 tosymbol;
#X obj -11 92 sprintf %ddB;
#X text 107 167 -> 0.0001..10 = -80dB..20dB;
#X obj 101 148 expr (pow(10 \, $f1 / 20));
#X obj 101 191 sel 0.0001;
#X msg 101 219 0;
#X obj 100 118 tgl 12 1 \$0-A \$0-B Mute 2 -5 1 9 -261299 -1 -1 0 1
;
#X obj 124 76 select 0 1;
#X obj 272 271 cnv 15 48 25 empty empty empty 20 12 0 14 -24198 -66577
0;
#N canvas 350 196 308 136 ??? 0;
#X obj -6 87 cnv 15 300 38 empty empty empty 20 12 0 14 -224896 -66577
0;
#X obj -6 10 cnv 18 300 70 empty empty ARGOPdMiniModules 3 10 1 14
-4033 -1 1.04858e+06;
#X obj 13 31 cnv 10 10 10 empty empty Gerard 0 5 1 11 -4033 -1 1.04858e+06
;
#X obj 55 30 cnv 10 10 10 empty empty Paresys 0 5 1 11 -4033 -1 1.04858e+06
;
#X text -1 89 Construit sous / Build under Pd 0.42.5-extended;
#X obj 6 43 pddp/pddplink http://pagesperso-orange.fr/Paresys/ARGOPd/
;
#X obj 6 58 pddp/pddplink http://gerard.paresys.free.fr/ARGOPd/;
#X obj 46 105 pddp/pddplink http://puredata.info/downloads;
#X restore 276 275 pd ???;
#X text 228 110 15 2 2012;
#X connect 3 0 4 0;
#X connect 4 0 1 0;
#X connect 5 0 15 0;
#X connect 5 0 17 0;
#X connect 11 0 12 0;
#X connect 12 0 10 0;
#X connect 13 0 5 0;
#X connect 14 0 13 0;
#X connect 15 0 14 0;
#X connect 17 0 18 0;
#X connect 18 0 19 0;
#X connect 18 1 4 1;
#X connect 18 1 12 1;
#X connect 19 0 4 1;
#X connect 19 0 12 1;
#X connect 19 0 14 0;
#X connect 20 0 21 0;
#X connect 21 0 5 0;
#X connect 21 1 19 0;
#X coords 0 -1 1 1 118 36 1 100 100;
#X restore 880 315 pd ARGO;
#X obj 873 135 pix_rgba;
#X obj 572 278 ctlin 2;
#X obj 422 237 ctlin 1;
#N canvas 404 91 350 315 ARGO 0;
#X text 80 84 gemlist;
#X obj 93 229 pix_texture;
#X obj 95 -3 inlet;
#X msg 250 198 quality \$1;
#X obj 136 20 select 0 1;
#X msg 152 68 0;
#X msg 110 68 set 0;
#X msg 48 108 set \$1;
#X obj 101 101 cnv 10 144 40 empty ColorForm empty 20 12 0 14 -228856
-1 1.04858e+06;
#X obj 101 101 cnv 4 10 4 empty empty empty 20 12 0 14 -128992 -66577
0;
#X obj 164 105 cnv 10 20 10 empty ColorForm GEM-Direct 1 5 1 14 -228856
-1 1.04858e+06;
#X obj 100 118 tgl 12 1 \$0-A ColorGEM Quality 15 6 1 9 -262144 -1
-1 0 1;
#X obj 100 106 tgl 12 1 \$0-A ColorGEM On/Off 15 6 1 9 -262144 -1 -1
1 1;
#X obj 159 199 int;
#X obj 136 -3 r \$0-SendOnOff;
#X obj 187 44 delay 1000;
#X obj 119 44 delay 1000;
#X obj 4 238 cnv 15 60 30 empty empty empty 20 12 0 14 -24198 -66577
0;
#N canvas 379 113 451 562 Help 0;
#X obj 13 281 cnv 15 400 150 empty empty empty 20 12 0 14 -258113 -66577
0;
#X text 16 284 - Erreur dans la fenêtre Pd:;
#X text 28 337 Se produit avec certaines cartes video \, de certains
PC \, sous Windows...;
#X text 28 365 Inconvenient: Charge CPU => la texture est calculée
(objet pix_texture) par le processeur de l'ordinateur et pas par la
carte video);
#X text 28 302 GL: énumérant non valide (répété);
#X text 28 313 OpenGL: invalid enumérant (repeat);
#X obj 13 35 cnv 15 430 180 empty empty empty 20 12 0 14 -233017 -66577
0;
#X text 28 51 Description: apply texture mapping;
#X text 27 69 Send a quality message to change the quality of the texture
mapping. GL_LINEAR is better than GL_NEAREST (but also more computationally
expensive). However \, on many machines (especially SGIs) \, there
is no speed difference.;
#X text 26 128 [pix_texture] tries to use the fastest way to get a
pix onto a texture. This implies using "rectangle"-texturing if available.
This \, in turn \, can lead to some problems with several geos. Try
using "rectangle 0" if you experience problems. Rectangle textures
cannot be REPEATed (they are always clamped-to-edge);
#X text 17 35 Citation;
#X text 15 -18 Envoie l'entrée remplir la fenêtre GEM;
#X text 15 -5 Send the input fill the GEM window;
#X text 4 -42 GEM-Direct;
#X text 28 325 Solution: cocher Compatible dans MM-GEM;
#X text 27 246 Utile avec certaines cartes video de certains PC sous
Windows...;
#X text 27 219 SendMode recu du MM GEM: Compatible = mode 0/1 = rectangle
0/1;
#X text 21 438 Nouveau depuis GEM-Direct 25 3 2010:;
#X text 31 451 - Ajout spigot sur l'entrée;
#X text 31 463 - Flip;
#X text 31 474 - Neg;
#X text 15 11 Neg = Négatif = Negative;
#X text 18 488 Nouveau depuis GEM-Direct 18 8 2011:;
#X text 32 504 - message rectangle au lieu de mode;
#X restore 11 244 pd Help;
#X obj 14 122 == 0;
#X obj 14 36 r SendMode;
#X obj 14 102 nbx 1 14 -1e+37 1e+37 0 1 empty empty empty 0 -6 0 10
-262144 -1 -1 0 256;
#X obj 92 142 spigot;
#X obj 162 130 hradio 12 1 1 4 \$0-A \$0-B 4x3 51 7 1 11 -262144 -1
-1 1;
#N canvas 303 128 648 228 Dimension 0;
#X obj 157 30 inlet;
#X obj 215 196 outlet;
#X obj -24 192 outlet;
#X msg 213 113 label 4x3;
#X msg 279 113 label 16x10;
#X msg 358 114 label 16x9;
#X text 248 25 4/3 = 5.33333333/4;
#X text 236 37 16/10 = 6.4/4;
#X text 242 49 16/9 = 7.11111111/4;
#X msg -157 111 5.33333;
#X msg -102 111 6.4;
#X msg -70 111 7.11111;
#X obj -41 29 inlet;
#X obj 75 31 inlet;
#X text -65 1 Flip Horizontal;
#X text 54 3 Flip Vertical;
#X obj 81 191 outlet;
#X text -32 13 0/1;
#X text 83 15 0/1;
#X obj 75 55 select 0 1;
#X msg 72 112 4;
#X msg 109 112 -4;
#X obj -24 166 *;
#X obj -41 54 select 0 1;
#X msg -14 111 1;
#X msg 22 111 -1;
#X text 248 61 3/4 = 3/4;
#X msg 145 113 label 3x4;
#X obj 157 56 sel 0 1 2 3;
#X msg -188 111 3;
#X obj -13 141 t b f;
#X connect 0 0 28 0;
#X connect 3 0 1 0;
#X connect 4 0 1 0;
#X connect 5 0 1 0;
#X connect 9 0 22 0;
#X connect 10 0 22 0;
#X connect 11 0 22 0;
#X connect 12 0 23 0;
#X connect 13 0 19 0;
#X connect 19 0 20 0;
#X connect 19 1 21 0;
#X connect 20 0 16 0;
#X connect 21 0 16 0;
#X connect 22 0 2 0;
#X connect 23 0 24 0;
#X connect 23 1 25 0;
#X connect 24 0 30 0;
#X connect 25 0 30 0;
#X connect 27 0 1 0;
#X connect 28 0 29 0;
#X connect 28 0 27 0;
#X connect 28 1 9 0;
#X connect 28 1 3 0;
#X connect 28 2 10 0;
#X connect 28 2 4 0;
#X connect 28 3 11 0;
#X connect 28 3 5 0;
#X connect 29 0 22 0;
#X connect 30 0 22 0;
#X connect 30 1 22 1;
#X restore 135 257 pd Dimension;
#X obj 94 284 rectangle 4 4;
#X obj 100 130 tgl 12 1 \$0-A \$0-B empty 15 6 1 9 -262144 -1 -1 1
1;
#X obj 112 130 tgl 12 1 \$0-A \$0-B Flip 15 7 1 9 -262144 -1 -1 0 1
;
#X obj 273 271 cnv 15 48 25 empty empty empty 20 12 0 14 -24198 -66577
0;
#X msg 10 198 rectangle \$1;
#N canvas 350 196 308 136 ??? 0;
#X obj -6 87 cnv 15 300 38 empty empty empty 20 12 0 14 -224896 -66577
0;
#X obj -6 10 cnv 18 300 70 empty empty ARGOPdMiniModules 3 10 1 14
-4033 -1 1.04858e+06;
#X obj 13 31 cnv 10 10 10 empty empty Gerard 0 5 1 11 -4033 -1 1.04858e+06
;
#X obj 55 30 cnv 10 10 10 empty empty Paresys 0 5 1 11 -4033 -1 1.04858e+06
;
#X text -1 89 Construit sous / Build under Pd 0.42.5-extended;
#X obj 6 43 pddp/pddplink http://pagesperso-orange.fr/Paresys/ARGOPd/
;
#X obj 6 58 pddp/pddplink http://gerard.paresys.free.fr/ARGOPd/;
#X obj 46 105 pddp/pddplink http://puredata.info/downloads;
#X restore 277 275 pd ???;
#X text 204 84 5 4 2012;
#X obj 162 118 hradio 12 1 1 3 \$0-A \$0-B Normal 38 7 1 11 -262144
-1 -1 0;
#N canvas 588 245 450 300 env 0;
#X msg 4 198 env 5;
#X msg 49 197 env 2;
#X obj 138 75 pipe 500;
#X text 211 84 sous Linux;
#X text 193 74 <- Sinon plantage;
#X text 212 94 et Pd-extended-42.5;
#X msg 342 93 env \$1;
#X obj 341 72 nbx 5 14 -1e+37 1e+37 0 0 empty empty empty 0 -8 0 10
-262144 -1 -1 0 256;
#X obj 341 50 bng 15 250 50 0 empty empty empty 17 7 0 10 -262144 -1
-1;
#X obj 138 98 sel 0 1 2;
#X msg 92 197 env 3;
#X msg 174 198 label Normal;
#X msg 260 199 label Negative;
#X msg 357 200 label White;
#X obj 140 19 inlet;
#X obj 264 244 outlet;
#X obj 88 241 outlet;
#X connect 0 0 16 0;
#X connect 1 0 16 0;
#X connect 2 0 9 0;
#X connect 6 0 16 0;
#X connect 7 0 6 0;
#X connect 8 0 7 0;
#X connect 9 0 0 0;
#X connect 9 0 11 0;
#X connect 9 1 1 0;
#X connect 9 1 12 0;
#X connect 9 2 10 0;
#X connect 9 2 13 0;
#X connect 10 0 16 0;
#X connect 11 0 15 0;
#X connect 12 0 15 0;
#X connect 13 0 15 0;
#X connect 14 0 2 0;
#X restore 198 197 pd env;
#X connect 1 0 25 0;
#X connect 2 0 22 0;
#X connect 3 0 1 0;
#X connect 4 0 16 0;
#X connect 4 1 15 0;
#X connect 5 0 1 0;
#X connect 6 0 12 0;
#X connect 7 0 12 0;
#X connect 11 0 3 0;
#X connect 12 0 13 0;
#X connect 12 0 22 1;
#X connect 13 0 1 0;
#X connect 13 0 7 0;
#X connect 14 0 4 0;
#X connect 15 0 13 0;
#X connect 16 0 5 0;
#X connect 16 0 6 0;
#X connect 19 0 29 0;
#X connect 20 0 21 0;
#X connect 21 0 19 0;
#X connect 22 0 1 0;
#X connect 23 0 24 2;
#X connect 24 0 25 1;
#X connect 24 1 25 2;
#X connect 24 2 23 0;
#X connect 26 0 24 0;
#X connect 27 0 24 1;
#X connect 29 0 1 0;
#X connect 32 0 33 0;
#X connect 33 0 1 0;
#X connect 33 1 32 0;
#X coords 0 -1 1 1 146 42 1 100 100;
#X restore 711 424 pd ARGO;
#N canvas 404 91 350 315 ARGO 0;
#X text 80 84 gemlist;
#X obj 93 229 pix_texture;
#X obj 95 -3 inlet;
#X msg 250 198 quality \$1;
#X obj 136 20 select 0 1;
#X msg 152 68 0;
#X msg 110 68 set 0;
#X msg 48 108 set \$1;
#X obj 101 101 cnv 10 144 40 empty ColorForm empty 20 12 0 14 -228856
-1 1.04858e+06;
#X obj 101 101 cnv 4 10 4 empty empty empty 20 12 0 14 -128992 -66577
0;
#X obj 164 105 cnv 10 20 10 empty ColorForm GEM-Direct 1 5 1 14 -228856
-1 1.04858e+06;
#X obj 100 118 tgl 12 1 \$0-A ColorGEM Quality 15 6 1 9 -262144 -1
-1 0 1;
#X obj 100 106 tgl 12 1 \$0-A ColorGEM On/Off 15 6 1 9 -262144 -1 -1
1 1;
#X obj 159 199 int;
#X obj 136 -3 r \$0-SendOnOff;
#X obj 187 44 delay 1000;
#X obj 119 44 delay 1000;
#X obj 4 238 cnv 15 60 30 empty empty empty 20 12 0 14 -24198 -66577
0;
#N canvas 379 113 451 562 Help 0;
#X obj 13 281 cnv 15 400 150 empty empty empty 20 12 0 14 -258113 -66577
0;
#X text 16 284 - Erreur dans la fenêtre Pd:;
#X text 28 337 Se produit avec certaines cartes video \, de certains
PC \, sous Windows...;
#X text 28 365 Inconvenient: Charge CPU => la texture est calculée
(objet pix_texture) par le processeur de l'ordinateur et pas par la
carte video);
#X text 28 302 GL: énumérant non valide (répété);
#X text 28 313 OpenGL: invalid enumérant (repeat);
#X obj 13 35 cnv 15 430 180 empty empty empty 20 12 0 14 -233017 -66577
0;
#X text 28 51 Description: apply texture mapping;
#X text 27 69 Send a quality message to change the quality of the texture
mapping. GL_LINEAR is better than GL_NEAREST (but also more computationally
expensive). However \, on many machines (especially SGIs) \, there
is no speed difference.;
#X text 26 128 [pix_texture] tries to use the fastest way to get a
pix onto a texture. This implies using "rectangle"-texturing if available.
This \, in turn \, can lead to some problems with several geos. Try
using "rectangle 0" if you experience problems. Rectangle textures
cannot be REPEATed (they are always clamped-to-edge);
#X text 17 35 Citation;
#X text 15 -18 Envoie l'entrée remplir la fenêtre GEM;
#X text 15 -5 Send the input fill the GEM window;
#X text 4 -42 GEM-Direct;
#X text 28 325 Solution: cocher Compatible dans MM-GEM;
#X text 27 246 Utile avec certaines cartes video de certains PC sous
Windows...;
#X text 27 219 SendMode recu du MM GEM: Compatible = mode 0/1 = rectangle
0/1;
#X text 21 438 Nouveau depuis GEM-Direct 25 3 2010:;
#X text 31 451 - Ajout spigot sur l'entrée;
#X text 31 463 - Flip;
#X text 31 474 - Neg;
#X text 15 11 Neg = Négatif = Negative;
#X text 18 488 Nouveau depuis GEM-Direct 18 8 2011:;
#X text 32 504 - message rectangle au lieu de mode;
#X restore 11 244 pd Help;
#X obj 14 122 == 0;
#X obj 14 36 r SendMode;
#X obj 14 102 nbx 1 14 -1e+37 1e+37 0 1 empty empty empty 0 -6 0 10
-262144 -1 -1 0 256;
#X obj 92 142 spigot;
#X obj 162 130 hradio 12 1 1 4 \$0-A \$0-B 3x4 51 7 1 11 -262144 -1
-1 0;
#N canvas 303 128 648 228 Dimension 0;
#X obj 157 30 inlet;
#X obj 215 196 outlet;
#X obj -24 192 outlet;
#X msg 213 113 label 4x3;
#X msg 279 113 label 16x10;
#X msg 358 114 label 16x9;
#X text 248 25 4/3 = 5.33333333/4;
#X text 236 37 16/10 = 6.4/4;
#X text 242 49 16/9 = 7.11111111/4;
#X msg -157 111 5.33333;
#X msg -102 111 6.4;
#X msg -70 111 7.11111;
#X obj -41 29 inlet;
#X obj 75 31 inlet;
#X text -65 1 Flip Horizontal;
#X text 54 3 Flip Vertical;
#X obj 81 191 outlet;
#X text -32 13 0/1;
#X text 83 15 0/1;
#X obj 75 55 select 0 1;
#X msg 72 112 4;
#X msg 109 112 -4;
#X obj -24 166 *;
#X obj -41 54 select 0 1;
#X msg -14 111 1;
#X msg 22 111 -1;
#X text 248 61 3/4 = 3/4;
#X msg 145 113 label 3x4;
#X obj 157 56 sel 0 1 2 3;
#X msg -188 111 3;
#X obj -13 141 t b f;
#X connect 0 0 28 0;
#X connect 3 0 1 0;
#X connect 4 0 1 0;
#X connect 5 0 1 0;
#X connect 9 0 22 0;
#X connect 10 0 22 0;
#X connect 11 0 22 0;
#X connect 12 0 23 0;
#X connect 13 0 19 0;
#X connect 19 0 20 0;
#X connect 19 1 21 0;
#X connect 20 0 16 0;
#X connect 21 0 16 0;
#X connect 22 0 2 0;
#X connect 23 0 24 0;
#X connect 23 1 25 0;
#X connect 24 0 30 0;
#X connect 25 0 30 0;
#X connect 27 0 1 0;
#X connect 28 0 29 0;
#X connect 28 0 27 0;
#X connect 28 1 9 0;
#X connect 28 1 3 0;
#X connect 28 2 10 0;
#X connect 28 2 4 0;
#X connect 28 3 11 0;
#X connect 28 3 5 0;
#X connect 29 0 22 0;
#X connect 30 0 22 0;
#X connect 30 1 22 1;
#X restore 135 257 pd Dimension;
#X obj 94 284 rectangle 4 4;
#X obj 100 130 tgl 12 1 \$0-A \$0-B empty 15 6 1 9 -262144 -1 -1 1
1;
#X obj 112 130 tgl 12 1 \$0-A \$0-B Flip 15 7 1 9 -262144 -1 -1 0 1
;
#X obj 273 271 cnv 15 48 25 empty empty empty 20 12 0 14 -24198 -66577
0;
#X msg 10 198 rectangle \$1;
#N canvas 350 196 308 136 ??? 0;
#X obj -6 87 cnv 15 300 38 empty empty empty 20 12 0 14 -224896 -66577
0;
#X obj -6 10 cnv 18 300 70 empty empty ARGOPdMiniModules 3 10 1 14
-4033 -1 1.04858e+06;
#X obj 13 31 cnv 10 10 10 empty empty Gerard 0 5 1 11 -4033 -1 1.04858e+06
;
#X obj 55 30 cnv 10 10 10 empty empty Paresys 0 5 1 11 -4033 -1 1.04858e+06
;
#X text -1 89 Construit sous / Build under Pd 0.42.5-extended;
#X obj 6 43 pddp/pddplink http://pagesperso-orange.fr/Paresys/ARGOPd/
;
#X obj 6 58 pddp/pddplink http://gerard.paresys.free.fr/ARGOPd/;
#X obj 46 105 pddp/pddplink http://puredata.info/downloads;
#X restore 277 275 pd ???;
#X text 204 84 5 4 2012;
#X obj 162 118 hradio 12 1 1 3 \$0-A \$0-B Normal 38 7 1 11 -262144
-1 -1 0;
#N canvas 588 245 450 300 env 0;
#X msg 4 198 env 5;
#X msg 49 197 env 2;
#X obj 138 75 pipe 500;
#X text 211 84 sous Linux;
#X text 193 74 <- Sinon plantage;
#X text 212 94 et Pd-extended-42.5;
#X msg 342 93 env \$1;
#X obj 341 72 nbx 5 14 -1e+37 1e+37 0 0 empty empty empty 0 -8 0 10
-262144 -1 -1 0 256;
#X obj 341 50 bng 15 250 50 0 empty empty empty 17 7 0 10 -262144 -1
-1;
#X obj 138 98 sel 0 1 2;
#X msg 92 197 env 3;
#X msg 174 198 label Normal;
#X msg 260 199 label Negative;
#X msg 357 200 label White;
#X obj 140 19 inlet;
#X obj 264 244 outlet;
#X obj 88 241 outlet;
#X connect 0 0 16 0;
#X connect 1 0 16 0;
#X connect 2 0 9 0;
#X connect 6 0 16 0;
#X connect 7 0 6 0;
#X connect 8 0 7 0;
#X connect 9 0 0 0;
#X connect 9 0 11 0;
#X connect 9 1 1 0;
#X connect 9 1 12 0;
#X connect 9 2 10 0;
#X connect 9 2 13 0;
#X connect 10 0 16 0;
#X connect 11 0 15 0;
#X connect 12 0 15 0;
#X connect 13 0 15 0;
#X connect 14 0 2 0;
#X restore 198 197 pd env;
#X connect 1 0 25 0;
#X connect 2 0 22 0;
#X connect 3 0 1 0;
#X connect 4 0 16 0;
#X connect 4 1 15 0;
#X connect 5 0 1 0;
#X connect 6 0 12 0;
#X connect 7 0 12 0;
#X connect 11 0 3 0;
#X connect 12 0 13 0;
#X connect 12 0 22 1;
#X connect 13 0 1 0;
#X connect 13 0 7 0;
#X connect 14 0 4 0;
#X connect 15 0 13 0;
#X connect 16 0 5 0;
#X connect 16 0 6 0;
#X connect 19 0 29 0;
#X connect 20 0 21 0;
#X connect 21 0 19 0;
#X connect 22 0 1 0;
#X connect 23 0 24 2;
#X connect 24 0 25 1;
#X connect 24 1 25 2;
#X connect 24 2 23 0;
#X connect 26 0 24 0;
#X connect 27 0 24 1;
#X connect 29 0 1 0;
#X connect 32 0 33 0;
#X connect 33 0 1 0;
#X connect 33 1 32 0;
#X coords 0 -1 1 1 146 42 1 100 100;
#X restore 443 411 pd ARGO;
#X obj 1059 327 ctlin 3;
#X floatatom 1060 369 5 0 0 0 - - -;
#X floatatom 1104 368 5 0 0 0 - - -;
#X floatatom 1109 284 5 0 0 0 - - -;
#X floatatom 944 447 5 0 0 0 - - -;
#X floatatom 901 467 5 0 0 0 - - -;
#X floatatom 843 376 5 0 0 0 - - -;
#X connect 1 0 12 0;
#X connect 1 1 7 0;
#X connect 2 0 16 0;
#X connect 3 0 11 0;
#X connect 3 1 6 0;
#X connect 4 0 15 0;
#X connect 5 0 1 0;
#X connect 6 0 4 0;
#X connect 6 0 9 0;
#X connect 6 0 11 1;
#X connect 7 0 8 0;
#X connect 8 0 14 0;
#X connect 9 0 8 1;
#X connect 10 0 0 0;
#X connect 12 0 49 0;
#X connect 12 0 10 0;
#X connect 13 0 7 1;
#X connect 14 0 12 1;
#X connect 15 0 6 1;
#X connect 16 0 20 0;
#X connect 16 0 21 0;
#X connect 17 0 16 0;
#X connect 18 0 20 1;
#X connect 19 0 20 2;
#X connect 20 0 22 0;
#X connect 21 0 33 0;
#X connect 22 0 3 0;
#X connect 23 0 25 0;
#X connect 23 0 24 0;
#X connect 24 0 22 1;
#X connect 25 0 21 1;
#X connect 32 0 30 0;
#X connect 32 1 31 0;
#X connect 33 0 3 0;
#X connect 34 0 33 0;
#X connect 36 0 34 0;
#X connect 37 0 36 0;
#X connect 37 1 35 0;
#X connect 39 0 23 0;
#X connect 40 0 39 0;
#X connect 40 1 38 0;
#X connect 42 0 41 0;
#X connect 42 0 41 1;
#X connect 43 0 42 0;
#X connect 47 0 52 0;
#X connect 47 0 53 0;
#X connect 47 1 48 0;
#X connect 47 3 48 1;
#X connect 48 0 45 0;
#X connect 48 1 45 1;
#X connect 49 0 46 0;
#X connect 49 0 47 0;
#X connect 50 0 28 0;
#X connect 50 0 19 0;
#X connect 50 1 29 0;
#X connect 51 0 26 0;
#X connect 51 0 18 0;
#X connect 51 1 27 0;
#X connect 54 0 55 0;
#X connect 54 1 56 0;
#X connect 57 0 48 1;
#X connect 58 0 45 1;
#X connect 59 0 45 0;
#X connect 60 0 48 0;
#X restore 35 141 pd buffer;
#X obj 46 5 hsl 128 15 0 127 0 0 empty empty empty -2 -8 0 10 -262144
-1 -1 0 1;
#X text 33 173 buffer;
#X obj 34 195 pix_buffer \$0-stockage 128;
#X floatatom 59 61 5 0 0 0 - - -;
#X floatatom 241 90 5 0 0 0 - - -;
#X floatatom 304 88 5 0 0 0 - - -;
#X obj 56 93 ctlout 1;
#X obj 239 49 ctlin 0;
#X connect 1 0 0 0;
#X connect 3 0 0 1;
#X connect 6 0 5 0;
#X connect 6 0 9 0;
#X connect 9 0 12 0;
#X connect 13 0 10 0;
#X connect 13 0 6 0;
#X connect 13 1 11 0;
